<svg width="292" height="307" viewBox="0 0 292 307" fill="none" xmlns="http://www.w3.org/2000/svg">
<path d="M292 0V44.0839C292 68.4181 272.393 88.1677 248.235 88.1677H43.765C19.6067 88.1677 0 68.4181 0 44.0839C0 31.9167 4.90168 20.8957 12.8669 12.9607C20.7446 4.93739 31.6858 0 43.765 0H292Z" fill="#26BB62"/>
<path d="M292 153.5C292 177.834 272.393 197.584 248.235 197.584H43.765C19.6067 197.584 0 177.834 0 153.5V109.416H248.235C272.393 109.416 292 129.166 292 153.5Z" fill="#26BB62"/>
<path d="M146 262.916C146 287.25 128.932 307 108.012 307H37.988C17.0683 307 0 287.25 0 262.916C0 250.749 4.28897 239.728 11.1163 231.793C18.0312 223.77 27.5719 218.832 37.988 218.832H108.012C128.932 218.832 146 238.582 146 262.916Z" fill="#26BB62"/>
</svg>
