<svg width="22" height="23" viewBox="0 0 22 23" fill="none" xmlns="http://www.w3.org/2000/svg">
<path d="M18.7708 13.3743V6.6228L13.5773 2.98737L8.38379 6.6228V8.18085H6.3064V5.58411L13.5773 0.390625L20.8481 5.58411V13.3743H18.7708ZM14.0966 7.14215H15.1353V6.10346H14.0966V7.14215ZM12.0192 7.14215H13.0579V6.10346H12.0192V7.14215ZM14.0966 9.21954H15.1353V8.18085H14.0966V9.21954ZM12.0192 9.21954H13.0579V8.18085H12.0192V9.21954ZM6.3064 18.0485L13.5253 20.022L19.7056 18.1004C19.619 17.9446 19.4933 17.8103 19.3285 17.6974C19.1637 17.5845 18.9778 17.5284 18.7708 17.5291H13.5253C13.0579 17.5291 12.6857 17.5118 12.4087 17.4772C12.1318 17.4426 11.8461 17.3733 11.5518 17.2694L9.13685 16.4645L9.70813 14.439L11.8115 15.1401C12.1058 15.2267 12.452 15.2959 12.8502 15.3479C13.2484 15.3998 13.8369 15.4344 14.616 15.4517C14.616 15.2613 14.5599 15.0795 14.4477 14.9064C14.3355 14.7333 14.2012 14.6208 14.0447 14.5688L7.96831 12.3356H6.3064V18.0485ZM0.0742188 21.6839V10.2582H7.96831C8.08949 10.2582 8.21067 10.2714 8.33185 10.2977C8.45304 10.324 8.56556 10.3541 8.66943 10.3881L14.7718 12.6472C15.3431 12.855 15.8063 13.2185 16.1615 13.7379C16.5168 14.2572 16.6941 14.8285 16.6934 15.4517H18.7708C19.6363 15.4517 20.3721 15.7374 20.978 16.3086C21.5839 16.8799 21.8868 17.633 21.8868 18.5678V19.6065L13.5773 22.2032L6.3064 20.1778V21.6839H0.0742188ZM2.15161 19.6065H4.229V12.3356H2.15161V19.6065Z" fill="white"/>
</svg>
