<svg width="449" height="544" viewBox="0 0 449 544" fill="none" xmlns="http://www.w3.org/2000/svg">
<g opacity="0.1">
<path d="M449 0.105469V78.1912C449 121.294 418.851 156.277 381.704 156.277H67.2962C30.1487 156.277 0 121.294 0 78.1912C0 56.6395 7.53717 37.1181 19.7851 23.0627C31.8984 8.85107 48.7224 0.105469 67.2962 0.105469H449Z" fill="#26BB62"/>
<path d="M449 272C449 315.103 418.851 350.086 381.704 350.086H67.2962C30.1487 350.086 0 315.103 0 272V193.914H381.704C418.851 193.914 449 228.897 449 272Z" fill="#26BB62"/>
<path d="M224.5 465.809C224.5 508.912 198.254 543.894 166.087 543.894H58.4131C26.2455 543.894 0 508.912 0 465.809C0 444.257 6.59502 424.736 17.0932 410.68C27.726 396.469 42.3966 387.723 58.4131 387.723H166.087C198.254 387.723 224.5 422.705 224.5 465.809Z" fill="#26BB62"/>
</g>
</svg>
