<svg width="172" height="50" viewBox="0 0 172 50" fill="none" xmlns="http://www.w3.org/2000/svg">
<path d="M62.7874 20.4203V26.7426H76.1666V32.0665H62.7874V42.8021H56.8213V19.5447C56.8213 17.1278 58.8219 15.1664 61.2869 15.1664H76.9704V20.4203H62.7874Z" fill="#1A1A32"/>
<path d="M78.7388 22.662H84.4549V42.8021H78.7388V22.662Z" fill="#1A1A32"/>
<path d="M101.335 42.8021V31.0683C101.335 28.4238 100.246 27.1979 97.834 27.1979C95.1368 27.1979 93.5649 28.7391 93.5649 31.4186V42.7846H87.8488V22.662H93.4398V25.5867C94.5652 23.4151 96.9766 22.1191 100.013 22.1191C104.408 22.1191 107.069 24.8511 107.069 29.6147V42.8021H101.335Z" fill="#1A1A32"/>
<path d="M131.362 13.9054V42.8021H125.718V39.8074C124.557 42.014 121.931 43.3625 118.983 43.3625C113.625 43.3625 109.713 38.9842 109.713 32.732C109.713 26.4799 113.625 22.1191 118.983 22.1191C121.877 22.1191 124.378 23.345 125.628 25.5166V13.9054H131.362ZM120.68 27.1804C117.501 27.1804 115.518 29.387 115.518 32.7496C115.518 36.1121 117.483 38.3187 120.68 38.3187C123.878 38.3187 125.843 36.1121 125.843 32.7496C125.843 29.387 123.878 27.1804 120.68 27.1804Z" fill="#1A1A32"/>
<path d="M154.816 22.662V42.8021H149.171V39.8074C148.01 42.014 145.385 43.3625 142.437 43.3625C137.078 43.3625 133.166 38.9842 133.166 32.732C133.166 26.4799 137.078 22.1191 142.437 22.1191C145.385 22.1191 147.993 23.4676 149.171 25.6743V22.6795H154.816V22.662ZM144.134 27.1629C140.955 27.1629 138.972 29.3695 138.972 32.732C138.972 36.0946 140.937 38.3012 144.134 38.3012C147.332 38.3012 149.297 36.0946 149.297 32.732C149.297 29.3695 147.332 27.1629 144.134 27.1629Z" fill="#1A1A32"/>
<path d="M172 27.8809C171.16 27.7233 170.303 27.6357 169.499 27.6357C165.998 27.6357 164.426 29.2469 164.426 33.0473V42.8021H158.71V22.662H164.301V25.972C165.301 23.6427 167.516 22.2592 170.267 22.2592C170.946 22.2592 171.518 22.3468 172 22.5394V27.8809Z" fill="#1A1A32"/>
<path d="M42.2453 13.1173L28.0444 1.87391C27.9373 1.78634 27.8301 1.71629 27.7408 1.62872C26.3475 0.61296 24.6327 0 22.7571 0C21.1137 0 19.5954 0.455341 18.3093 1.26095L16.8624 2.3993H16.8445L3.34033 13.1173C1.32184 14.606 0 16.9877 0 19.6673V41.8389C0 46.3573 3.7333 50 8.32402 50H37.2616C41.8702 50 45.5856 46.3573 45.5856 41.8389V19.6673C45.5856 16.9877 44.2817 14.606 42.2453 13.1173ZM18.6308 44.7285H13.0576C10.7712 44.7285 8.89563 42.9072 8.89563 40.648C8.89563 38.3888 10.7712 36.5674 13.0576 36.5674H18.6308C20.9351 36.5674 22.7928 38.3888 22.7928 40.648C22.7928 42.9072 20.9351 44.7285 18.6308 44.7285ZM32.528 34.711H13.0576C10.7712 34.711 8.89563 32.8722 8.89563 30.6305V26.5499H32.528C34.8323 26.5499 36.69 28.3713 36.69 30.6305C36.69 32.8897 34.8323 34.711 32.528 34.711ZM36.69 20.3853C36.69 22.6445 34.8323 24.4658 32.528 24.4658H13.0576C10.7712 24.4658 8.89563 22.6445 8.89563 20.3853C8.89563 18.1261 10.7712 16.3047 13.0576 16.3047H36.69V20.3853Z" fill="#26BB62"/>
</svg>
