<svg width="196" height="196" viewBox="0 0 196 196" fill="none" xmlns="http://www.w3.org/2000/svg">
<path d="M117.445 53.0054L163.952 31.5727L142.519 78.0793L141.867 79.4929L143.328 80.0319L191.368 97.7618L143.328 115.491L141.867 116.03L142.519 117.444L163.952 163.951L117.445 142.518L116.031 141.866L115.492 143.327L97.7623 191.367L80.0324 143.327L79.4934 141.866L78.0798 142.518L31.5732 163.951L53.0059 117.444L53.6574 116.03L52.1971 115.491L4.15674 97.7618L52.1971 80.0319L53.6574 79.4929L53.0059 78.0793L31.5732 31.5727L78.0798 53.0054L79.4934 53.6569L80.0324 52.1966L97.7623 4.15625L115.492 52.1966L116.031 53.6569L117.445 53.0054Z" fill="white" stroke="#26BB62" stroke-width="2.87848"/>
</svg>
