<svg width="183" height="182" viewBox="0 0 183 182" fill="none" xmlns="http://www.w3.org/2000/svg">
<path d="M39.035 98.8202L40.0265 98.0523L38.8664 97.5761L0.943268 82.009L20.5791 34.0739L58.5175 49.6029L59.6787 50.0782L59.5108 48.8349L54.0244 8.20138L105.346 1.24633L110.872 41.8744L111.041 43.1176L112.034 42.3505L144.471 17.2843L176.156 58.2643L143.744 83.3632L142.752 84.131L143.913 84.6073L181.836 100.174L162.2 148.11L124.262 132.58L123.101 132.105L123.269 133.349L128.755 173.982L77.4333 180.937L71.9073 140.309L71.7382 139.066L70.7454 139.833L38.3084 164.899L6.62287 123.919L39.035 98.8202Z" stroke="#26BB62" stroke-width="1.45017"/>
</svg>
