<svg width="231" height="63" viewBox="0 0 231 63" fill="none" xmlns="http://www.w3.org/2000/svg">
<path d="M0.5 32.0956C0.5 17.7692 10.9205 5.5731 25.1223 3.84024C37.3549 2.34765 51.8715 0.873917 63.4035 0.577604C79.7544 0.157474 92.4844 1.50519 105.233 3.12444C106.971 3.34518 108.71 3.57102 110.458 3.79812C121.534 5.23691 133.002 6.72646 147.175 7.29346C164.106 7.97074 185.948 7.94742 203.088 7.76723C218.123 7.60916 230.5 19.6995 230.5 34.7279C230.5 50.6049 216.755 63.0223 200.927 61.6575C176.548 59.5555 142.09 57.0533 116.038 57.0377C90.5715 57.0224 57.1484 59.3734 32.715 61.4398C15.4806 62.8973 0.5 49.3798 0.5 32.0956Z" fill="#FAFAFB" fill-opacity="0.12" stroke="#585858"/>
</svg>
