<svg width="70" height="74" viewBox="0 0 70 74" fill="none" xmlns="http://www.w3.org/2000/svg">
<path d="M70 0V10.5628C70 16.3935 65.2998 21.1256 59.5084 21.1256H10.4916C4.70024 21.1256 0 16.3935 0 10.5628C0 7.64746 1.17506 5.00677 3.08453 3.10546C4.97302 1.18303 7.59592 0 10.4916 0H70Z" fill="#7DD6A1"/>
<path d="M70 36.7797C70 42.6103 65.2998 47.3425 59.5084 47.3425H10.4916C4.70024 47.3425 0 42.6103 0 36.7797V26.2169H59.5084C65.2998 26.2169 70 30.949 70 36.7797Z" fill="#7DD6A1"/>
<path d="M35 62.9965C35 68.8272 30.9083 73.5593 25.8933 73.5593H9.10671C4.09173 73.5593 0 68.8272 0 62.9965C0 60.0812 1.02818 57.4405 2.66487 55.5392C4.32254 53.6168 6.60971 52.4337 9.10671 52.4337H25.8933C30.9083 52.4337 35 57.1659 35 62.9965Z" fill="#7DD6A1"/>
</svg>
